<?xml version="1.0" encoding="utf-8"?>
<!-- Generator: Adobe Illustrator 21.0.0, SVG Export Plug-In . SVG Version: 6.00 Build 0)  -->
<svg version="1.1" id="Layer_1" xmlns="http://www.w3.org/2000/svg" xmlns:xlink="http://www.w3.org/1999/xlink" x="0px" y="0px"
	 viewBox="0 0 716.3 219.3" style="enable-background:new 0 0 716.3 219.3;" xml:space="preserve">
<style type="text/css">
	.st0{fill:#003B71;}
	.st1{fill:#5C6670;}
</style>
<g>
	<path class="st0" d="M154.3,139.3l-52.4,30.3l-52.4-30.3V78.8l52.4-30.3l52.4,30.3V139.3L154.3,139.3z M101.8,37.2L39.6,73.2V145
		l62.2,35.9L164,145V73.2L101.8,37.2L101.8,37.2z"/>
</g>
<g>
	<polygon class="st0" points="101.8,135 122.4,147.5 142.9,135 142.9,110 122.4,122.5 101.8,110 101.8,135 	"/>
</g>
<g>
	<polygon class="st0" points="80.4,72.6 58.9,85.1 58.9,110 80.4,97.5 101.8,110 101.8,85.1 80.4,72.6 	"/>
</g>
<g>
	<path class="st1" d="M266,180.9h-6.2v-43.4h-51.6v43.4H202V92.6h6.2v39.2h51.6V92.6h6.2V180.9z"/>
	<path class="st1" d="M333.5,149.7h-35.9l-12.3,31.2h-6.8L314,92.2h3.9l34.8,88.7h-6.9L333.5,149.7z M299.8,144.2h31.6l-12-31.8
		c-1-2.5-2.2-6-3.6-10.4c-1.1,3.9-2.3,7.4-3.6,10.5L299.8,144.2z"/>
	<path class="st1" d="M429.4,180.9h-6.2l-52.3-78.4h-0.5c0.5,9.3,0.7,16.4,0.7,21.1v57.3h-5.9V92.6h6.2l52.2,78.3h0.4
		c-0.4-7.2-0.5-14.1-0.5-20.7V92.6h6V180.9z"/>
	<path class="st1" d="M489.1,136.4h32.6v40.3c-8.5,3.6-18.1,5.4-28.8,5.4c-13.9,0-24.6-3.9-32-11.8c-7.4-7.9-11.1-19-11.1-33.4
		c0-9,1.8-16.9,5.5-23.9c3.7-6.9,9-12.3,15.8-16.1c6.9-3.8,14.7-5.7,23.6-5.7c9.6,0,18.3,1.8,25.9,5.3l-2.5,5.6
		c-7.7-3.5-15.6-5.3-23.8-5.3c-11.6,0-20.9,3.6-27.7,10.8c-6.8,7.2-10.2,16.9-10.2,29.1c0,13.3,3.2,23.3,9.7,30
		c6.5,6.7,16,10.1,28.6,10.1c8.1,0,15-1.1,20.7-3.4v-31h-26.3V136.4z"/>
	<path class="st1" d="M586.3,149.7h-35.9l-12.3,31.2h-6.8l35.5-88.7h3.9l34.8,88.7h-6.9L586.3,149.7z M552.7,144.2h31.6l-12-31.8
		c-1-2.5-2.2-6-3.6-10.4c-1.1,3.9-2.3,7.4-3.6,10.5L552.7,144.2z"/>
	<path class="st1" d="M624.2,142.4v38.5H618V92.6h21c10.9,0,19,2,24.3,6.1c5.2,4.1,7.9,10.1,7.9,18.3c0,5.9-1.6,10.9-4.7,15
		c-3.1,4.1-7.9,7-14.2,8.8l24,40.2h-7.4l-22.8-38.5H624.2z M624.2,137.1h16.9c7.4,0,13.2-1.7,17.3-5c4.1-3.3,6.2-8.2,6.2-14.7
		c0-6.7-2-11.6-6-14.7c-4-3.1-10.6-4.6-19.7-4.6h-14.6V137.1z"/>
</g>
<g>
	<g>
		<path class="st0" d="M209.3,46v19.7H229V46H209.3L209.3,46z M201.8,38.5h27.6c2,0,3.7,0.7,5.1,2.1c1.4,1.4,2.1,3.1,2.1,5v20.5
			c0,2-0.7,3.6-2.1,5c-1.4,1.4-3.1,2.1-5.1,2.1h-27.6V38.5L201.8,38.5z"/>
	</g>
	<g>
		<path class="st0" d="M251.1,47.1h14.4V54h-14.1v19.3h-6.9V53.6c0-1.8,0.6-3.3,1.9-4.6C247.8,47.7,249.3,47.1,251.1,47.1
			L251.1,47.1z"/>
	</g>
	<g>
		<path class="st0" d="M278.5,54v12.4h12.7V54H278.5L278.5,54z M278.1,47.1h13.4c1.8,0,3.3,0.6,4.6,1.9c1.3,1.3,1.9,2.8,1.9,4.6
			v13.1c0,1.8-0.6,3.3-1.9,4.6c-1.3,1.3-2.8,1.9-4.6,1.9h-13.4c-1.8,0-3.3-0.6-4.6-1.9c-1.3-1.3-1.9-2.8-1.9-4.6V53.6
			c0-1.8,0.6-3.3,1.9-4.6C274.8,47.7,276.3,47.1,278.1,47.1L278.1,47.1z"/>
	</g>
	<g>
		<path class="st0" d="M324.7,47.1c1.8,0,3.3,0.6,4.6,1.9c1.3,1.3,1.9,2.8,1.9,4.6v19.6h-6.9V54h-12.7v19.3h-6.9V47.1H324.7
			L324.7,47.1z"/>
	</g>
	<g>
		<path class="st0" d="M344.7,57.6h12.7V54h-12.7V57.6L344.7,57.6z M357.8,47.1c1.8,0,3.3,0.6,4.6,1.9c1.3,1.3,1.9,2.8,1.9,4.6v10
			h-19.6v2.7h19.6v6.9h-20c-1.8,0-3.3-0.6-4.6-1.9c-1.3-1.3-1.9-2.8-1.9-4.6V53.6c0-1.8,0.6-3.3,1.9-4.6c1.3-1.3,2.8-1.9,4.6-1.9
			H357.8L357.8,47.1z"/>
	</g>
	<g>
		<path class="st0" d="M398.1,53.6v1.3h-6.9V54h-12.7v2.7h13.1c1.8,0,3.4,0.6,4.7,1.9c1.3,1.3,1.9,2.8,1.9,4.6v3.5
			c0,1.8-0.6,3.3-1.9,4.6c-1.3,1.3-2.8,1.9-4.7,1.9h-13.4c-1.8,0-3.3-0.6-4.6-1.9c-1.3-1.3-1.9-2.8-1.9-4.6v-1.3h6.9v0.9h12.7v-2.7
			h-13.1c-1.8,0-3.3-0.6-4.6-1.9c-1.3-1.3-1.9-2.8-1.9-4.6v-3.5c0-1.8,0.6-3.3,1.9-4.6c1.3-1.3,2.8-1.9,4.6-1.9h13.4
			c1.8,0,3.4,0.6,4.7,1.9C397.5,50.3,398.1,51.9,398.1,53.6L398.1,53.6z"/>
	</g>
	<g>
		<path class="st0" d="M437.4,47.1c1.8,0,3.3,0.6,4.6,1.9c1.3,1.3,1.9,2.8,1.9,4.6v19.6H437V54h-8.7v19.3h-6.9V54h-8.7v19.3h-6.9
			V47.1H437.4L437.4,47.1z"/>
	</g>
	<g>
		<path class="st0" d="M453,73.3V47.1h6.9v26.2H453L453,73.3z M453,38.5h6.9v6.9H453V38.5L453,38.5z"/>
	</g>
	<g>
		<path class="st0" d="M484,54h-9.7v12.4h9.7v6.9h-10c-1.8,0-3.4-0.6-4.7-1.9c-1.3-1.3-1.9-2.8-1.9-4.6V38.5h6.9v8.6h9.7V54L484,54z
			"/>
	</g>
	<g>
		<path class="st0" d="M511.8,47.1c1.8,0,3.3,0.6,4.6,1.9c1.3,1.3,1.9,2.8,1.9,4.6v19.6h-6.9V54h-12.7v19.3h-6.9V38.5h6.9v8.6H511.8
			L511.8,47.1z"/>
	</g>
</g>
</svg>
