<?xml version="1.0" encoding="utf-8"?>
<!-- Generator: Adobe Illustrator 16.0.0, SVG Export Plug-In . SVG Version: 6.00 Build 0)  -->
<!DOCTYPE svg PUBLIC "-//W3C//DTD SVG 1.1//EN" "http://www.w3.org/Graphics/SVG/1.1/DTD/svg11.dtd">
<svg version="1.1" id="Layer_1" xmlns="http://www.w3.org/2000/svg" xmlns:xlink="http://www.w3.org/1999/xlink" x="0px" y="0px"
	 width="158.4px" height="158.4px" viewBox="0 0 158.4 158.4" enable-background="new 0 0 158.4 158.4" xml:space="preserve">
<g>
	<path fill-rule="evenodd" clip-rule="evenodd" fill="#28406F" d="M-1360.304-81.959v40.884h40.885v-40.884H-1360.304z
		 M-1375.836-97.591h57.22c4.141,0,7.666,1.452,10.572,4.358c2.906,2.906,4.358,6.398,4.358,10.472v42.489
		c0,4.076-1.453,7.566-4.358,10.471c-2.907,2.906-6.431,4.359-10.572,4.359h-57.22V-97.591"/>
	<path fill-rule="evenodd" clip-rule="evenodd" fill="#28406F" d="M-1273.46-79.715h29.944v14.316h-29.289v39.957h-14.318v-40.706
		c0-3.68,1.341-6.86,4.024-9.545C-1280.417-78.373-1277.203-79.715-1273.46-79.715"/>
	<path fill-rule="evenodd" clip-rule="evenodd" fill="#28406F" d="M-1216.756-65.398v25.64h26.389v-25.64H-1216.756z
		 M-1217.504-79.715h27.886c3.743,0,6.939,1.342,9.591,4.022c2.651,2.685,3.978,5.865,3.978,9.545v27.137
		c0,3.682-1.327,6.863-3.978,9.545c-2.652,2.684-5.848,4.023-9.591,4.023h-27.886c-3.682,0-6.864-1.34-9.545-4.023
		c-2.683-2.682-4.024-5.863-4.024-9.545v-27.137c0-3.68,1.341-6.86,4.024-9.545C-1224.368-78.373-1221.186-79.715-1217.504-79.715"
		/>
	<path fill-rule="evenodd" clip-rule="evenodd" fill="#28406F" d="M-1120.84-79.715c3.743,0,6.939,1.342,9.592,4.022
		c2.65,2.685,3.977,5.865,3.977,9.545v40.706h-14.317v-39.957h-26.389v39.957h-14.317v-54.273H-1120.84"/>
	<path fill-rule="evenodd" clip-rule="evenodd" fill="#28406F" d="M-1079.479-57.912h26.389v-7.486h-26.389V-57.912z
		 M-1052.342-79.715c3.742,0,6.938,1.342,9.592,4.022c2.65,2.685,3.978,5.865,3.978,9.545v20.774h-40.707v5.615h40.707v14.316
		h-41.456c-3.681,0-6.863-1.34-9.544-4.023c-2.683-2.682-4.024-5.863-4.024-9.545v-27.137c0-3.68,1.341-6.86,4.024-9.545
		c2.681-2.681,5.863-4.022,9.544-4.022H-1052.342"/>
	<path fill-rule="evenodd" clip-rule="evenodd" fill="#28406F" d="M-968.685-66.147v2.714h-14.411v-1.965h-26.39v5.614h27.139
		c3.804,0,7.032,1.326,9.685,3.977c2.65,2.653,3.978,5.85,3.978,9.592v7.205c0,3.682-1.327,6.863-3.978,9.545
		c-2.652,2.684-5.881,4.023-9.685,4.023h-27.886c-3.683,0-6.864-1.34-9.546-4.023c-2.683-2.682-4.023-5.863-4.023-9.545v-2.713
		h14.316v1.965h26.39v-5.615h-27.137c-3.683,0-6.864-1.34-9.546-4.023c-2.683-2.682-4.023-5.863-4.023-9.544v-7.206
		c0-3.68,1.341-6.86,4.023-9.545c2.682-2.681,5.863-4.022,9.546-4.022h27.886c3.804,0,7.032,1.342,9.685,4.022
		C-970.012-73.008-968.685-69.827-968.685-66.147"/>
	<path fill-rule="evenodd" clip-rule="evenodd" fill="#28406F" d="M-887.275-79.715c3.743,0,6.94,1.342,9.593,4.022
		c2.65,2.685,3.977,5.865,3.977,9.545v40.706h-14.224v-39.957h-17.967v39.957h-14.41v-39.957h-17.967v39.957h-14.317v-54.273
		H-887.275"/>
	<path fill-rule="evenodd" clip-rule="evenodd" fill="#28406F" d="M-854.804-25.442v-54.273h14.317v54.273H-854.804z
		 M-854.804-97.495h14.317v14.411h-14.317V-97.495"/>
	<path fill-rule="evenodd" clip-rule="evenodd" fill="#28406F" d="M-790.519-65.398h-20.119v25.64h20.119v14.316h-20.774
		c-3.806,0-7.034-1.34-9.685-4.023c-2.652-2.682-3.978-5.863-3.978-9.545v-58.581h14.317v17.876h20.119V-65.398"/>
	<path fill-rule="evenodd" clip-rule="evenodd" fill="#28406F" d="M-732.878-79.715c3.68,0,6.862,1.342,9.545,4.022
		c2.681,2.685,4.024,5.865,4.024,9.545v40.706h-14.317v-39.957h-26.389v39.957h-14.318v-72.053h14.318v17.78H-732.878"/>
	<polyline fill-rule="evenodd" clip-rule="evenodd" fill="#535C6A" points="-1361.285,41.597 -1365.151,41.597 -1365.151,11.777 
		-1375.684,11.777 -1375.684,8.341 -1350.753,8.341 -1350.753,11.777 -1361.285,11.777 -1361.285,41.597 	"/>
	<polyline fill-rule="evenodd" clip-rule="evenodd" fill="#535C6A" points="-1298.7,41.597 -1317.239,41.597 -1317.239,8.341 
		-1298.7,8.341 -1298.7,11.777 -1313.372,11.777 -1313.372,22.49 -1299.587,22.49 -1299.587,25.902 -1313.372,25.902 
		-1313.372,38.14 -1298.7,38.14 -1298.7,41.597 	"/>
	<path fill-rule="evenodd" clip-rule="evenodd" fill="#535C6A" d="M-1248.581,11.322c-3.655,0-6.54,1.217-8.655,3.65
		c-2.115,2.434-3.173,5.766-3.173,9.998c0,4.352,1.019,7.715,3.059,10.088c2.039,2.373,4.948,3.559,8.724,3.559
		c2.32,0,4.966-0.416,7.938-1.25v3.389c-2.305,0.863-5.148,7.297-8.53,7.297c-4.898,0-8.678-7.486-11.339-10.459
		c-2.661-2.971-3.992-7.195-3.992-12.67c0-3.426,0.64-6.43,1.922-9.006c1.281-2.578,3.131-4.566,5.55-5.961
		c2.419-1.395,5.266-2.094,8.542-2.094c3.487,0,6.535,0.639,9.144,1.912l-1.638,3.32
		C-1243.546,11.914-1246.064,11.322-1248.581,11.322"/>
	<polyline fill-rule="evenodd" clip-rule="evenodd" fill="#535C6A" points="-1179.673,41.597 -1183.539,41.597 -1183.539,25.947 
		-1201.054,25.947 -1201.054,41.597 -1204.921,41.597 -1204.921,8.341 -1201.054,8.341 -1201.054,22.49 -1183.539,22.49 
		-1183.539,8.341 -1179.673,8.341 -1179.673,41.597 	"/>
	<path fill-rule="evenodd" clip-rule="evenodd" fill="#535C6A" d="M-1116.065,41.597h-4.413l-18.174-27.91h-0.182
		c0.242,3.275,0.364,6.279,0.364,9.008v18.902h-3.572V8.341h4.368l18.129,27.797h0.182c-0.03-0.41-0.099-1.725-0.205-3.947
		c-0.106-2.221-0.144-3.809-0.113-4.766V8.341h3.616V41.597"/>
	<path fill-rule="evenodd" clip-rule="evenodd" fill="#535C6A" d="M-1076.045,24.923c0,4.504,0.959,7.92,2.878,10.248
		c1.918,2.328,4.704,3.492,8.359,3.492c3.685,0,6.467-1.16,8.348-3.48c1.88-2.32,2.821-5.74,2.821-10.26
		c0-4.473-0.938-7.865-2.809-10.18c-1.874-2.311-4.645-3.469-8.315-3.469c-3.684,0-6.486,1.164-8.404,3.492
		C-1075.086,17.095-1076.045,20.48-1076.045,24.923z M-1049.545,24.923c0,5.324-1.346,9.508-4.038,12.557
		c-2.691,3.049-6.433,10.572-11.225,10.572c-4.898,0-8.678-7.498-11.339-10.492c-2.661-2.996-3.992-7.223-3.992-12.682
		c0-5.414,1.334-9.611,4.003-12.59c2.669-2.98,6.46-4.471,11.373-4.471c4.777,0,8.508,1.518,11.192,4.549
		C-1050.887,15.4-1049.545,19.587-1049.545,24.923"/>
	<polyline fill-rule="evenodd" clip-rule="evenodd" fill="#535C6A" points="-1013.618,41.597 -1013.618,8.341 -1009.752,8.341 
		-1009.752,38.095 -995.081,38.095 -995.081,41.597 -1013.618,41.597 	"/>
	<path fill-rule="evenodd" clip-rule="evenodd" fill="#535C6A" d="M-958.563,24.923c0,4.504,0.959,7.92,2.878,10.248
		c1.918,2.328,4.704,3.492,8.358,3.492c3.686,0,6.468-1.16,8.349-3.48c1.88-2.32,2.82-5.74,2.82-10.26
		c0-4.473-0.937-7.865-2.81-10.18c-1.872-2.311-4.645-3.469-8.313-3.469c-3.685,0-6.486,1.164-8.404,3.492
		C-957.604,17.095-958.563,20.48-958.563,24.923z M-932.063,24.923c0,5.324-1.347,9.508-4.038,12.557
		c-2.692,3.049-6.435,10.572-11.226,10.572c-4.898,0-8.677-7.498-11.34-10.492c-2.661-2.996-3.991-7.223-3.991-12.682
		c0-5.414,1.334-9.611,4.003-12.59c2.669-2.98,6.46-4.471,11.374-4.471c4.776,0,8.508,1.518,11.191,4.549
		C-933.406,15.4-932.063,19.587-932.063,24.923"/>
	<path fill-rule="evenodd" clip-rule="evenodd" fill="#535C6A" d="M-881.512,24.173h11.305v16.172
		c-1.759,0.563-3.549,0.986-5.369,1.273c-1.818,0.289-3.927,6.434-6.322,6.434c-5.035,0-8.955-7.498-11.761-10.492
		c-2.805-2.996-4.208-7.191-4.208-12.59c0-3.459,0.693-6.488,2.081-9.088c1.389-2.602,3.386-4.588,5.993-5.959
		c2.609-1.373,5.665-2.061,9.167-2.061c3.549,0,6.855,0.654,9.918,1.957l-1.501,3.412c-3.002-1.273-5.892-1.91-8.666-1.91
		c-4.05,0-7.211,1.205-9.486,3.617c-2.273,2.41-3.411,5.754-3.411,10.031c0,4.488,1.095,7.893,3.286,10.213
		c2.192,2.32,5.41,3.48,9.656,3.48c2.305,0,4.558-0.266,6.756-0.797V27.63h-7.438V24.173"/>
	<rect x="-833.713" y="8.341" fill-rule="evenodd" clip-rule="evenodd" fill="#535C6A" width="3.866" height="33.256"/>
	<polyline fill-rule="evenodd" clip-rule="evenodd" fill="#535C6A" points="-773.676,41.597 -792.214,41.597 -792.214,8.341 
		-773.676,8.341 -773.676,11.777 -788.348,11.777 -788.348,22.49 -774.563,22.49 -774.563,25.902 -788.348,25.902 -788.348,38.14 
		-773.676,38.14 -773.676,41.597 	"/>
	<path fill-rule="evenodd" clip-rule="evenodd" fill="#535C6A" d="M-719.03,32.75c0,2.926-1.061,5.209-3.185,6.846
		c-2.123,1.637-5.004,8.457-8.643,8.457c-3.943,0-6.977-6.508-9.099-7.523v-3.73c1.364,0.576,2.851,1.031,4.458,1.365
		c1.606,0.332,3.199,0.5,4.776,0.5c2.578,0,4.519-0.49,5.823-1.469c1.305-0.977,1.955-2.338,1.955-4.082
		c0-1.152-0.23-2.096-0.692-2.832c-0.463-0.734-1.236-1.414-2.32-2.037c-1.085-0.619-2.733-1.326-4.948-2.113
		c-3.093-1.107-5.304-2.42-6.631-3.936c-1.326-1.516-1.99-3.496-1.99-5.938c0-2.563,0.964-4.604,2.891-6.119
		c1.925-1.516,4.473-2.275,7.642-2.275c3.306,0,6.348,0.607,9.121,1.82l-1.205,3.367c-2.745-1.152-5.414-1.729-8.007-1.729
		c-2.047,0-3.648,0.439-4.8,1.318c-1.152,0.881-1.729,2.102-1.729,3.662c0,1.154,0.213,2.098,0.639,2.832
		c0.424,0.736,1.14,1.412,2.148,2.025c1.01,0.613,2.553,1.293,4.629,2.035c3.488,1.244,5.889,2.578,7.199,4.004
		C-719.687,28.625-719.03,30.474-719.03,32.75"/>
	<path fill-rule="evenodd" clip-rule="evenodd" fill="#28406F" d="M-990.384-156.64l-53.811,31.066l-53.81-31.066v-62.135
		l53.81-31.068l53.811,31.068V-156.64z M-1044.194-261.414l-63.832,36.854v73.706l63.832,36.854l63.832-36.854v-73.706
		L-1044.194-261.414"/>
	<polyline fill-rule="evenodd" clip-rule="evenodd" fill="#28406F" points="-1044.194,-161.068 -1023.147,-148.249 
		-1002.102,-161.068 -1002.102,-186.705 -1023.147,-173.886 -1044.194,-186.705 -1044.194,-161.068 	"/>
	<polyline fill-rule="evenodd" clip-rule="evenodd" fill="#28406F" points="-1066.242,-225.161 -1088.291,-212.343 
		-1088.291,-186.705 -1066.242,-199.524 -1044.194,-186.705 -1044.194,-212.343 -1066.242,-225.161 	"/>
</g>
<g>
	<path fill-rule="evenodd" clip-rule="evenodd" fill="#28406F" d="M133.011,110.269L79.2,141.335L25.39,110.269V48.134L79.2,17.065
		l53.811,31.068V110.269z M79.2,5.493L15.368,42.348v73.706L79.2,152.907l63.832-36.854V42.348L79.2,5.493"/>
	<polyline fill-rule="evenodd" clip-rule="evenodd" fill="#28406F" points="79.2,105.839 100.247,118.659 121.292,105.839 
		121.292,80.202 100.247,93.022 79.2,80.202 79.2,105.839 	"/>
	<polyline fill-rule="evenodd" clip-rule="evenodd" fill="#28406F" points="57.153,41.747 35.103,54.565 35.103,80.202 
		57.153,67.384 79.2,80.202 79.2,54.565 57.153,41.747 	"/>
</g>
<g>
	<path fill="#264170" d="M16.793,185.465h48.441c3.507,0,6.49,1.231,8.951,3.691c2.46,2.461,3.69,5.416,3.69,8.865v35.972
		c0,3.449-1.23,6.404-3.69,8.865c-2.461,2.459-5.444,3.689-8.951,3.689H16.793V185.465z M29.942,198.7v34.613h34.613V198.7H29.942z"
		/>
	<path fill="#264170" d="M99.425,197.342h27.146v12.981h-26.553v36.225h-12.98v-36.903c0-3.337,1.215-6.221,3.647-8.653
		C93.117,198.559,96.031,197.342,99.425,197.342z"/>
	<path fill="#264170" d="M144.301,197.342h25.281c3.393,0,6.291,1.217,8.695,3.649c2.402,2.433,3.605,5.316,3.605,8.653v24.603
		c0,3.337-1.203,6.223-3.605,8.653c-2.404,2.433-5.303,3.647-8.695,3.647h-25.281c-3.338,0-6.223-1.215-8.653-3.647
		c-2.434-2.431-3.648-5.316-3.648-8.653v-24.603c0-3.337,1.215-6.221,3.648-8.653C138.078,198.559,140.963,197.342,144.301,197.342z
		 M144.979,210.323v23.244h23.924v-23.244H144.979z"/>
	<path fill="#264170" d="M226.082,197.342c3.395,0,6.291,1.217,8.695,3.649s3.605,5.316,3.605,8.653v36.903h-12.979v-36.225h-23.926
		v36.225H188.5v-49.206H226.082z"/>
	<path fill="#264170" d="M282.328,197.342c3.395,0,6.291,1.217,8.697,3.649c2.402,2.433,3.605,5.316,3.605,8.653v18.832h-36.904
		v5.091h36.904v12.98h-37.584c-3.338,0-6.223-1.215-8.652-3.647c-2.434-2.431-3.648-5.316-3.648-8.653v-24.603
		c0-3.337,1.215-6.221,3.648-8.653c2.43-2.433,5.314-3.649,8.652-3.649H282.328z M257.727,217.108h23.924v-6.785h-23.924V217.108z"
		/>
	<path fill="#264170" d="M352.318,209.645v2.46h-13.064v-1.781H315.33v5.09h24.602c3.449,0,6.375,1.203,8.781,3.605
		c2.402,2.404,3.605,5.301,3.605,8.696v6.532c0,3.337-1.203,6.223-3.605,8.653c-2.406,2.433-5.332,3.647-8.781,3.647H314.65
		c-3.338,0-6.223-1.215-8.652-3.647c-2.434-2.431-3.648-5.316-3.648-8.653v-2.459h12.98v1.779h23.924v-5.091H314.65
		c-3.338,0-6.223-1.215-8.652-3.647c-2.434-2.43-3.648-5.314-3.648-8.652v-6.532c0-3.337,1.215-6.221,3.648-8.653
		c2.43-2.433,5.314-3.649,8.652-3.649h25.281c3.449,0,6.375,1.217,8.781,3.649C351.115,203.424,352.318,206.308,352.318,209.645z"/>
	<path fill="#264170" d="M420.271,197.342c3.393,0,6.291,1.217,8.695,3.649s3.605,5.316,3.605,8.653v36.903h-12.895v-36.225h-16.289
		v36.225h-13.064v-36.225h-16.289v36.225h-12.98v-49.206H420.271z"/>
	<path fill="#264170" d="M443.855,181.224h12.98v13.064h-12.98V181.224z M443.855,246.548v-49.206h12.98v49.206H443.855z"/>
	<path fill="#264170" d="M496.283,210.323h-18.24v23.244h18.24v12.98h-18.834c-3.451,0-6.377-1.215-8.781-3.647
		c-2.404-2.431-3.605-5.316-3.605-8.653v-51.496h12.98v14.591h18.24V210.323z"/>
	<path fill="#264170" d="M542.688,197.342c3.336,0,6.221,1.217,8.652,3.649s3.648,5.316,3.648,8.653v36.903h-12.98v-36.225h-23.924
		v36.225h-12.98v-65.324h12.98v16.118H542.688z"/>
	<path fill="#264170" d="M601.986,185.465h35.887c3.506,0,6.488,1.231,8.949,3.691c2.461,2.461,3.691,5.416,3.691,8.865v48.526
		h-13.32v-19.682h-34.611v19.682H589.43v-48.526c0-3.507,1.217-6.475,3.648-8.907C595.51,186.683,598.48,185.465,601.986,185.465z
		 M602.582,213.632h34.611V198.7h-34.611V213.632z"/>
	<path fill="#264170" d="M660.186,185.552h48.441c3.449,0,6.418,1.229,8.906,3.689c2.488,2.46,3.732,5.416,3.732,8.865v15.78
		c0,3.449-1.244,6.405-3.732,8.865s-5.457,3.689-8.906,3.689l-35.293,0.085c0.17,0,0.256,0.17,0.256,0.508
		c-0.115,0-0.199-0.027-0.256-0.084v19.598h-13.148V185.552z M673.334,198.7v14.508h34.613V198.7H673.334z"/>
	<path fill="#264170" d="M727.373,246.548v-61.083h13.234v61.083H727.373z"/>
</g>
</svg>
