<?xml version="1.0" encoding="utf-8"?>
<!-- Generator: Adobe Illustrator 16.0.0, SVG Export Plug-In . SVG Version: 6.00 Build 0)  -->
<!DOCTYPE svg PUBLIC "-//W3C//DTD SVG 1.1//EN" "http://www.w3.org/Graphics/SVG/1.1/DTD/svg11.dtd">
<svg version="1.1" id="Layer_1" xmlns="http://www.w3.org/2000/svg" xmlns:xlink="http://www.w3.org/1999/xlink" x="0px" y="0px"
	 width="467.8px" height="578.41px" viewBox="72.1 51.491 467.8 578.41" enable-background="new 72.1 51.491 467.8 578.41"
	 xml:space="preserve">
<g>
	<g>
		<circle fill="#003B71" cx="306" cy="396" r="150.9"/>
		<path fill="#FFFFFF" d="M306,162.1C177,162.1,72.1,267,72.1,395.999C72.1,525,177,629.9,306,629.9S539.9,525,539.9,395.999
			C539.9,267.1,435,162.1,306,162.1z M155.1,395.999c0-83.3,67.6-150.899,150.9-150.899s150.9,67.6,150.9,150.899
			C456.9,479.301,389.3,546.9,306,546.9S155.1,479.4,155.1,395.999z"/>
	</g>
	<polygon fill="#003B71" points="402.3,107.491 306,51.491 209.7,107.491 209.7,219.491 306,163.491 402.3,219.491 	"/>
</g>
</svg>
