<?xml version="1.0" encoding="utf-8"?>
<!-- Generator: Adobe Illustrator 18.1.1, SVG Export Plug-In . SVG Version: 6.00 Build 0)  -->
<!DOCTYPE svg PUBLIC "-//W3C//DTD SVG 1.1//EN" "http://www.w3.org/Graphics/SVG/1.1/DTD/svg11.dtd">
<svg version="1.1" id="Layer_1" xmlns="http://www.w3.org/2000/svg" xmlns:xlink="http://www.w3.org/1999/xlink" x="0px" y="0px"
	 viewBox="0 0 70.5 71.5" enable-background="new 0 0 70.5 71.5" xml:space="preserve">
<g display="none">
	<g display="inline">
		<path fill="none" d="M35.2-141.2c-77.4,0-145,43-180.4,106h360.8C180.2-98.2,112.6-141.2,35.2-141.2z"/>
	</g>
	<g display="inline">
		<path fill="#FFFFFF" d="M35.2-141.2c77.4,0,145,43,180.4,106h2.6c-35.6-65-104.3-108.2-183-108.2c-78.7,0-147.4,43.2-183,108.2
			h2.6C-109.8-98.2-42.2-141.2,35.2-141.2z"/>
	</g>
</g>
<g display="none">
	<rect x="-28.8" y="63.8" display="inline" fill="#FFFFFF" width="128" height="4"/>
</g>
<g display="none">
	<rect x="-28.8" y="-37.2" display="inline" fill="#FFFFFF" width="128" height="1"/>
</g>
<g display="none">
	<rect x="5.2" y="-88.2" display="inline" fill="#FFFFFF" width="60" height="1"/>
</g>
<g display="none">
	<rect x="5.2" y="12.8" display="inline" fill="#FFFFFF" width="60" height="1"/>
</g>
<g display="none">
	<rect x="5.2" y="113.8" display="inline" fill="#FFFFFF" width="60" height="1"/>
</g>
<g display="none">
	<rect x="5.2" y="214.8" display="inline" fill="#FFFFFF" width="60" height="2"/>
</g>
<g display="none">
	<rect x="-28.8" y="164.8" display="inline" fill="#FFFFFF" width="128" height="1"/>
</g>
<g>
	<path fill="#FFFFFF" d="M36.3,57.4L11.5,14.8h49.6L36.3,57.4z M16.8,17.8l19.5,33.6l19.5-33.6H16.8z"/>
</g>
</svg>
