<?xml version="1.0" encoding="utf-8"?>
<!-- Generator: Adobe Illustrator 18.1.1, SVG Export Plug-In . SVG Version: 6.00 Build 0)  -->
<!DOCTYPE svg PUBLIC "-//W3C//DTD SVG 1.1//EN" "http://www.w3.org/Graphics/SVG/1.1/DTD/svg11.dtd">
<svg version="1.1" id="Layer_1" xmlns="http://www.w3.org/2000/svg" xmlns:xlink="http://www.w3.org/1999/xlink" x="0px" y="0px"
	 viewBox="0 0 1280 800" enable-background="new 0 0 1280 800" xml:space="preserve">
<polygon opacity="0.4" fill="#FFFFFF" points="427,482 427,334.9 457.8,304.2 454.1,300.4 422,332.7 422,482 422,631.3 454.2,663.6 
	457.8,659.8 427,629.1 "/>
<polygon opacity="0.4" fill="#FFFFFF" points="856,482 856,334.9 825.1,304.2 828.8,300.4 861,332.7 861,482 861,631.3 828.7,663.6 
	825.1,659.8 856,629.1 "/>
<polygon display="none" fill="#FFFFFF" points="1106.5,137 642,137 639,137 174.5,137 158.2,157.4 159.8,158.6 175.5,139 639,139 
	642,139 1105.5,139 1121.2,158.6 1122.8,157.4 "/>
<polygon display="none" fill="#FFFFFF" points="404,445.3 404,438 410.4,441.6 416.7,445.3 410.4,448.9 404,452.6 "/>
<polygon display="none" fill="none" stroke="#FFFFFF" stroke-miterlimit="10" points="643.4,277.5 650.7,277.5 647,283.6 
	643.4,289.8 639.7,283.7 636.1,277.5 "/>
<polygon display="none" fill="#FFFFFF" points="879,587.3 879,594.6 872.5,590.9 866.1,587.3 872.5,583.6 879,580 "/>
<g display="none">
	<g display="inline">
		<path fill="none" d="M643,300.2c-68.6,0-128.4,37.8-159.8,93.8h319.5C771.4,338,711.6,300.2,643,300.2z"/>
		<path fill="#FFFFFF" d="M643,300.2c68.6,0,128.4,37.8,159.8,93.8h2.3c-31.5-57-92.3-95.8-162.1-95.8
			c-69.7,0-130.5,38.8-162.1,95.8h2.3C514.6,338,574.4,300.2,643,300.2z"/>
	</g>
	
		<line display="inline" fill="none" stroke="#FFFFFF" stroke-width="3" stroke-miterlimit="10" x1="586" y1="483.5" x2="700" y2="483.5"/>
	<line display="inline" fill="none" stroke="#FFFFFF" stroke-miterlimit="10" x1="586" y1="392.5" x2="700" y2="392.5"/>
	<line display="inline" fill="none" stroke="#FFFFFF" stroke-miterlimit="10" x1="616" y1="347.5" x2="670" y2="347.5"/>
	<line display="inline" fill="none" stroke="#FFFFFF" stroke-miterlimit="10" x1="616" y1="437.5" x2="670" y2="437.5"/>
	<line display="inline" fill="none" stroke="#FFFFFF" stroke-miterlimit="10" x1="616" y1="526.5" x2="670" y2="526.5"/>
	<line display="inline" fill="none" stroke="#FFFFFF" stroke-miterlimit="10" x1="616" y1="616.5" x2="670" y2="616.5"/>
	<line display="inline" fill="none" stroke="#FFFFFF" stroke-miterlimit="10" x1="586" y1="571.5" x2="700" y2="571.5"/>
</g>
</svg>
